<svg xmlns="http://www.w3.org/2000/svg" width="1600" height="980" viewBox="0 0 1600 980" role="img" aria-label="Lake serenity camp morning">
  <defs>
    <linearGradient id="sky" x1="0" y1="0" x2="1" y2="1">
      <stop offset="0%" stop-color="#173447"/>
      <stop offset="56%" stop-color="#3481a5"/>
      <stop offset="100%" stop-color="#d4c5a8"/>
    </linearGradient>
  </defs>
  <rect width="1600" height="980" fill="url(#sky)"/>
  <path d="M0 730 C220 680 420 688 620 744 C812 798 996 806 1188 760 C1368 720 1490 726 1600 766 V980 H0 Z" fill="#2e667d"/>
  <path d="M0 816 C250 776 470 792 690 846 C890 894 1110 892 1330 850 C1450 828 1548 830 1600 850 V980 H0 Z" fill="#245061"/>
  <path d="M640 722 L726 592 L812 722 Z" fill="#f0d7a8"/>
  <rect x="700" y="722" width="52" height="58" fill="#d7ba86"/>
</svg>
