<svg xmlns="http://www.w3.org/2000/svg" width="1200" height="800" viewBox="0 0 1200 800" role="img" aria-label="Sample resort room image">
  <defs>
    <linearGradient id="bg" x1="0" y1="0" x2="1" y2="1">
      <stop offset="0%" stop-color="#14372d"/>
      <stop offset="52%" stop-color="#2a6d58"/>
      <stop offset="100%" stop-color="#4f8f74"/>
    </linearGradient>
    <linearGradient id="mist" x1="0" y1="0" x2="0" y2="1">
      <stop offset="0%" stop-color="#ffffff" stop-opacity="0.22"/>
      <stop offset="100%" stop-color="#ffffff" stop-opacity="0"/>
    </linearGradient>
  </defs>
  <rect width="1200" height="800" fill="url(#bg)"/>
  <rect width="1200" height="420" fill="url(#mist)"/>
  <path d="M0 560 C180 500 360 500 540 560 C720 620 900 620 1080 560 C1130 542 1165 536 1200 540 V800 H0 Z" fill="#1a4739"/>
  <path d="M0 640 C210 592 420 604 620 656 C820 708 1020 708 1200 664 V800 H0 Z" fill="#113228"/>

  <rect x="130" y="130" width="940" height="500" rx="26" fill="#f4f8f5" stroke="#c8ddd0" stroke-width="3"/>
  <rect x="170" y="170" width="860" height="260" rx="16" fill="#d8e8dc"/>
  <path d="M210 390 L360 250 L500 390 Z" fill="#8fb4a0"/>
  <path d="M460 400 L640 218 L804 400 Z" fill="#6f9a84"/>
  <rect x="170" y="454" width="860" height="146" rx="12" fill="#ffffff"/>

  <text x="220" y="520" font-family="Segoe UI, Tahoma, sans-serif" font-size="44" font-weight="700" fill="#1c4b3b">SST Resort Room</text>
  <text x="220" y="568" font-family="Segoe UI, Tahoma, sans-serif" font-size="28" fill="#3e6658">Sample image while backend/central image is unavailable</text>
</svg>
